<?xml version="1.0" encoding="utf-8"?>
<!-- Generator: Adobe Illustrator 15.0.0, SVG Export Plug-In  -->
<!DOCTYPE svg PUBLIC "-//W3C//DTD SVG 1.1//EN" "http://www.w3.org/Graphics/SVG/1.1/DTD/svg11.dtd" [
	<!ENTITY ns_flows "http://ns.adobe.com/Flows/1.0/">
]>
<svg version="1.1"
	 xmlns="http://www.w3.org/2000/svg" xmlns:xlink="http://www.w3.org/1999/xlink" xmlns:a="http://ns.adobe.com/AdobeSVGViewerExtensions/3.0/"
	 x="0px" y="0px" width="120px" height="82px" viewBox="-0.875 -0.9160156 120 82"
	 overflow="visible" enable-background="new -0.875 -0.9160156 120 82" xml:space="preserve">
<defs>
</defs>
<polygon fill="#37c8ee" points="90.7119141,56.4003906 90.7119141,57.9599609 83.2070312,57.9599609 83.2070312,56.4003906 "/>
<path fill="#37c8ee" d="M0,65.0009766v-0.6865234h3.9370117c0.8808594,0,1.5239258-0.4550781,1.921875-1.3691406
	c0.2509766-0.5644531,0.5273438-1.4521484,0.8242188-2.6699219c0.2177734-0.8955078,0.3730469-1.4667969,0.4570312-1.7128906
	c-1.6601562-0.875-2.9780273-2.15625-3.9433594-3.8447266C2.2519531,53.0810547,1.7758789,51.3125,1.7758789,49.4150391
	c0-4.3320312,1.9550781-7.5039062,5.8652344-9.5141602c2.0581055-1.0527344,4.6821289-1.5800781,7.8779297-1.5800781
	c5.4208984,0,9.203125,1.5102539,11.3378906,4.5219727c1.105957,1.5664062,1.6601562,3.5537109,1.6601562,5.9560547
	c0,4.7509766-1.3833008,8.6894531-4.1479492,11.8173828c-2.894043,3.2783203-6.7080078,4.9150391-11.440918,4.9150391
	c-0.5981445,0-2.3222656-0.1142578-5.1704102-0.34375c-0.4179688-0.0371094-1.1899414-0.0878906-2.3095703-0.1503906
	c-0.6040039-0.0263672-1.2924805-0.0380859-2.0581055-0.0380859H0V65.0009766z M13.4741211,39.2749023
	c-2.2392578,0.203125-4.2001953,0.7739258-5.8920898,1.7192383C5.652832,42.0703125,4.2900391,43.53125,3.4790039,45.3769531
	c-0.6499023,1.484375-0.9711914,2.8867188-0.9711914,4.2119141c0,2.0800781,0.7709961,4.0966797,2.3154297,6.0439453
	c0.7397461,0.9453125,1.5756836,1.6445312,2.5078125,2.0996094l1.4599609-6.09375
	c0.2568359-1.1435547,0.6679688-2.8613281,1.2348633-5.1455078c0.5649414-2.1123047,1.1640625-3.7685547,1.7880859-4.9599609
	C12.277832,40.6386719,12.8310547,39.8837891,13.4741211,39.2749023L13.4741211,39.2749023z M15.0429688,60.0917969
	l-0.0708008,0.7226562c-2.1362305-0.0566406-4.1669922-0.5136719-6.097168-1.3691406
	c-0.5078125,1.7744141-1.2412109,3.1132812-2.1928711,3.9960938c-0.2119141,0.1953125-0.3149414,0.3544922-0.3149414,0.4941406
	c0,0.2783203,0.2568359,0.4179688,0.7719727,0.4179688c-0.0639648,0,0.237793,0.0390625,0.9125977,0.1083984l0.090332,0.0126953
	c0.6630859,0.0761719,1.4350586,0.1328125,2.3149414,0.1845703c0.1611328,0.0058594,0.4819336,0.0302734,0.9580078,0.0751953
	c0.777832,0.0761719,1.5761719,0.1210938,2.3989258,0.1210938c4.8691406,0,8.3149414-2.2392578,10.3540039-6.7050781
	c1.3828125-3.03125,2.0708008-6.1845703,2.0708008-9.4628906c0-6.375-3.4985352-9.5644531-10.4956055-9.5644531
	c-0.6171875,0-1.0932617,0.0126953-1.4282227,0.0380859c-0.7270508,0.9008789-1.5239258,3.5136719-2.3920898,7.8398438
	c-1.0097656,5.0224609-1.9296875,8.9238281-2.765625,11.7216797C11.1069336,59.5722656,13.0688477,60.0273438,15.0429688,60.0917969
	L15.0429688,60.0917969z"/>
<path fill="#37c8ee" d="M36.652832,58.9882812l0.5942383,0.2226562c-0.9072266,2.4296875-2.1850586,4.2177734-3.8491211,5.3662109
	c-0.7817383,0.5390625-1.5200195,0.8046875-2.2167969,0.8046875c-0.8491211,0-1.5141602-0.3115234-2.0161133-0.9316406
	c-0.4570312-0.5595703-0.6850586-1.2685547-0.6850586-2.1191406c0-2.7275391,0.9331055-5.4482422,2.7919922-8.15625
	c1.7998047-2.6269531,3.4902344-3.9384766,5.0678711-3.9384766c1.2592773,0,1.8852539,0.6582031,1.8852539,1.9785156
	c0,1.9355469-1.175293,3.9277344-3.5161133,5.9824219c-1.2128906,1.0585938-2.7070312,1.8896484-4.4750977,2.4980469
	c-0.2280273,1.0332031-0.3447266,1.8583984-0.3447266,2.4736328c0,1.0986328,0.4169922,1.6435547,1.2519531,1.6435547
	c1.3237305,0,2.6879883-1.0146484,4.0766602-3.0449219C35.8378906,60.8662109,36.3139648,59.9453125,36.652832,58.9882812
	L36.652832,58.9882812z M30.3261719,60.0605469c2.3608398-0.8505859,4.34375-2.7285156,5.9487305-5.6396484
	c0.6523438-1.1796875,0.9790039-2.0927734,0.9790039-2.7392578c0-0.5839844-0.2617188-0.8769531-0.7827148-0.8769531
	c-1.1669922,0-2.453125,1.2949219-3.8623047,3.8769531C31.5849609,56.5517578,30.8217773,58.3476562,30.3261719,60.0605469
	L30.3261719,60.0605469z"/>
<path fill="#37c8ee" d="M38.5371094,65.0009766l4.1088867-11.7978516c0.0371094-0.1083984,0.1118164-0.3046875,0.2060547-0.6035156
	l0.0678711-0.203125c0.03125-0.0761719,0.0688477-0.1777344,0.105957-0.3046875l0.2001953-0.5644531v-0.2666016
	c0-0.3037109-0.1123047-0.4570312-0.3320312-0.4570312c-0.3632812,0-0.8442383,0.40625-1.4379883,1.2119141
	c-0.0688477,0.1025391-0.1630859,0.2167969-0.2631836,0.34375c-0.2070312,0.3300781-0.46875,0.7109375-0.7939453,1.1416016
	c-0.0249023,0.0507812-0.1000977,0.1777344-0.21875,0.3808594l-1.9140625,3.1962891l-0.4379883-0.2285156l1.7939453-3
	c1.4448242-2.4101562,2.5957031-3.6152344,3.453125-3.6152344c0.3496094,0,0.6625977,0.1455078,0.9316406,0.4316406
	c0.269043,0.2851562,0.425293,0.6074219,0.4633789,0.9707031v0.5761719c0,0.3242188-0.0820312,0.7041016-0.2382812,1.1425781
	c-0.0678711,0.0957031-0.1191406,0.234375-0.1557617,0.4121094c-0.0620117,0.1582031-0.1381836,0.375-0.2250977,0.6464844
	l-0.9189453,2.7470703h4.8408203l2.2631836-6.5019531l1.6699219-0.0068359L47.6220703,62.40625
	c-0.0620117,0.1210938-0.125,0.2724609-0.1938477,0.4697266c-0.019043,0.0576172-0.0561523,0.1708984-0.1064453,0.3300781
	c-0.206543,0.5263672-0.3056641,0.9189453-0.3056641,1.1796875c0,0.2851562,0.1118164,0.4306641,0.3369141,0.4306641
	c0.09375,0,0.2441406-0.0566406,0.4501953-0.1572266c0.09375-0.0703125,0.2558594-0.2089844,0.480957-0.4189453
	c0.3686523-0.4384766,0.625-0.7675781,0.7875977-0.9892578c0.4072266-0.5839844,0.7314453-1.078125,0.9760742-1.4902344
	l1.9331055-3.1845703l0.4438477,0.2158203l-1.8066406,2.9755859c-0.8950195,1.4716797-1.5009766,2.3710938-1.8330078,2.7011719
	c-0.105957,0.0761719-0.1943359,0.1523438-0.2631836,0.2294922c-0.4570312,0.4560547-0.9008789,0.6845703-1.3510742,0.6845703
	c-0.7626953,0-1.2260742-0.4560547-1.3886719-1.3632812v-0.6074219c0-0.3173828,0.206543-1.0546875,0.6259766-2.2080078
	l1.1699219-3.4697266h-4.8041992l-2.5327148,7.2744141L38.5371094,65.0009766L38.5371094,65.0009766z"/>
<path fill="#37c8ee" d="M66.9453125,51.2246094H63.3125l-4.534668,13.7705078l-1.7080078,0.0126953l4.5708008-13.7832031h-3.5888672
	l-4.5766602,13.7822266l-1.7011719-0.0058594l4.5341797-13.7763672h-2.4008789v-0.5703125h16.8857422v0.5703125h-2.1328125
	l-3.9394531,11.1826172c-0.0068359,0.0244141-0.0136719,0.0576172-0.0195312,0.0957031l-0.0371094,0.1064453
	c-0.0068359,0.0205078-0.0380859,0.1074219-0.1015625,0.2607422c-0.0244141,0.0390625-0.0742188,0.1513672-0.1435547,0.3369141
	c-0.0302734,0.1650391-0.0673828,0.2773438-0.1123047,0.3417969c-0.125,0.2792969-0.1884766,0.5585938-0.1884766,0.8378906
	c0,0.2851562,0.125,0.4257812,0.3818359,0.4257812c0.1503906,0,0.3310547-0.0761719,0.53125-0.2294922
	c0.1699219-0.1328125,0.28125-0.2333984,0.3320312-0.3056641c0.0371094-0.0302734,0.09375-0.0820312,0.1621094-0.1513672
	c0.125-0.1269531,0.3691406-0.4423828,0.7197266-0.9443359c0.2255859-0.3046875,0.5498047-0.7675781,0.9755859-1.3955078
	l1.9013672-3.203125l0.3935547,0.2216797l-1.7578125,2.9628906c-0.2626953,0.4433594-0.5371094,0.875-0.8310547,1.2929688
	c-0.0751953,0.0966797-0.2001953,0.2734375-0.375,0.5263672c-0.7822266,1.1992188-1.5263672,1.7949219-2.2451172,1.7949219
	c-0.9511719,0-1.4257812-0.6591797-1.4257812-1.9716797c0-0.3125,0.2128906-1.046875,0.6308594-2.2080078L66.9453125,51.2246094
	L66.9453125,51.2246094z"/>
<path fill="#37c8ee" d="M82.2304688,58.6464844L82.6875,58.8300781l-1.6513672,3.0126953
	c-1.2949219,2.3603516-2.3701172,3.5390625-3.2333984,3.5390625c-0.8945312,0-1.3447266-0.5957031-1.3447266-1.7949219
	c0-0.5830078,0.1005859-1.1533203,0.2939453-1.7128906l1.4824219-4.1416016h-0.1455078
	c-0.1123047,0.2089844-0.4755859,0.7871094-1.0878906,1.75c-2.5078125,3.9335938-4.5029297,5.8984375-5.9912109,5.8984375
	c-1.0947266,0-1.6445312-0.9638672-1.6445312-2.8916016c0-1.5732422,0.75-3.4326172,2.2441406-5.5820312
	c1.2441406-1.7890625,2.6269531-3.3056641,4.1347656-4.5419922c1.7324219-1.421875,3.0703125-2.1308594,4.0146484-2.1308594
	c1.1005859,0,1.6513672,0.5205078,1.6513672,1.5605469c0,0.4375-0.09375,0.9199219-0.2880859,1.4394531l-0.1689453,0.4570312
	l-2.7011719,8.1875c-0.1318359,0.3740234-0.2128906,0.6796875-0.2568359,0.9072266
	c-0.0244141,0.1269531-0.0742188,0.3046875-0.15625,0.5390625c-0.1435547,0.4384766-0.21875,0.7802734-0.21875,1.0205078
	c0,0.3115234,0.1005859,0.4628906,0.3007812,0.4628906c0.5439453,0,1.4326172-1.078125,2.6640625-3.234375L82.2304688,58.6464844
	L82.2304688,58.6464844z M78.890625,54.9550781c0.9316406-1.9990234,1.3955078-3.2041016,1.3955078-3.6103516
	c0-0.3603516-0.2119141-0.5380859-0.6376953-0.5380859c-0.9072266,0-2.1396484,0.9384766-3.6953125,2.8222656
	c-1.0214844,1.2304688-1.9589844,2.5625-2.8144531,3.9960938c-1.8632812,3.0888672-2.796875,5.1630859-2.796875,6.2285156
	c0,0.6416016,0.2382812,0.9589844,0.7148438,0.9589844c0.7744141,0,1.8886719-0.8632812,3.3457031-2.5878906
	C76.0771484,60.2177734,77.5771484,57.8017578,78.890625,54.9550781L78.890625,54.9550781z"/>
<path fill="#37c8ee" d="M89.0234375,65.0009766v-0.6865234h3.8955078c0.8720703,0,1.5087891-0.4550781,1.9013672-1.3691406
	c0.2480469-0.5644531,0.5214844-1.4521484,0.8144531-2.6699219c0.2167969-0.8955078,0.3691406-1.4667969,0.4521484-1.7128906
	c-1.6416016-0.875-2.9462891-2.15625-3.8994141-3.8447266c-0.9365234-1.6367188-1.40625-3.4052734-1.40625-5.3027344
	c0-4.3320312,1.9335938-7.5039062,5.8027344-9.5141602c2.0371094-1.0527344,4.6328125-1.5800781,7.7949219-1.5800781
	c5.3642578,0,9.1054688,1.5102539,11.2207031,4.5219727c1.09375,1.5664062,1.640625,3.5537109,1.640625,5.9560547
	c0,4.7509766-1.3671875,8.6894531-4.1035156,11.8173828c-2.8652344,3.2783203-6.6376953,4.9150391-11.3222656,4.9150391
	c-0.5898438,0-2.296875-0.1142578-5.1142578-0.34375c-0.4140625-0.0371094-1.1787109-0.0878906-2.2851562-0.1503906
	c-0.5986328-0.0263672-1.2783203-0.0380859-2.0361328-0.0380859h-3.3554688V65.0009766z M102.3554688,39.2749023
	c-2.2148438,0.203125-4.1542969,0.7739258-5.828125,1.7192383c-1.9091797,1.0761719-3.2597656,2.5371094-4.0615234,4.3828125
	c-0.6425781,1.484375-0.9609375,2.8867188-0.9609375,4.2119141c0,2.0800781,0.7646484,4.0966797,2.2910156,6.0439453
	c0.7314453,0.9453125,1.5595703,1.6445312,2.4814453,2.0996094l1.4453125-6.09375
	c0.2539062-1.1435547,0.6601562-2.8613281,1.2207031-5.1455078c0.5605469-2.1123047,1.1523438-3.7685547,1.7695312-4.9599609
	C101.171875,40.6386719,101.7207031,39.8837891,102.3554688,39.2749023L102.3554688,39.2749023z M103.9082031,60.0917969
	l-0.0703125,0.7226562c-2.1113281-0.0566406-4.1230469-0.5136719-6.03125-1.3691406
	c-0.5019531,1.7744141-1.2285156,3.1132812-2.1699219,3.9960938c-0.2089844,0.1953125-0.3125,0.3544922-0.3125,0.4941406
	c0,0.2783203,0.2548828,0.4179688,0.7636719,0.4179688c-0.0625,0,0.2353516,0.0390625,0.9033203,0.1083984l0.0888672,0.0126953
	c0.65625,0.0761719,1.4199219,0.1328125,2.2910156,0.1845703c0.1582031,0.0058594,0.4785156,0.0302734,0.9472656,0.0751953
	c0.7714844,0.0761719,1.5605469,0.1210938,2.375,0.1210938c4.8154297,0,8.2275391-2.2392578,10.2441406-6.7050781
	c1.3671875-3.03125,2.0488281-6.1845703,2.0488281-9.4628906c0-6.375-3.4609375-9.5644531-10.3847656-9.5644531
	c-0.6103516,0-1.0820312,0.0126953-1.4121094,0.0380859c-0.71875,0.9008789-1.5078125,3.5136719-2.3671875,7.8398438
	c-0.9990234,5.0224609-1.9091797,8.9238281-2.7363281,11.7216797
	C100.0136719,59.5722656,101.9550781,60.0273438,103.9082031,60.0917969L103.9082031,60.0917969z"/>
<path fill="#37c8ee" d="M52.565918,0.1938477c3.8242188,0.2382812,5.4199219,2.7319336,5.9692383,5.8120117
	c0.5239258,2.9472656,0.0610352,6.4243164-0.2783203,8.875c-0.3969727,2.8613281-0.1279297,6.6352539,0.1420898,10.4331055
	c0.2148438,3.0268555,0.4321289,6.0698242,0.315918,8.7280273c-0.0668945,1.5620117-0.2138672,3.0927734-0.4868164,4.4648438
	c-0.2797852,1.4013672-0.6958008,2.6542969-1.3007812,3.6357422c-0.5942383,0.9628906-1.3134766,1.7822266-2.0532227,2.3515625
	c-0.7558594,0.5810547-1.5458984,0.90625-2.2709961,0.8710938c-1.6391602-0.0214844-2.2612305-1.875-2.5068359-4.0761719
	c-0.3813477-3.40625,0.3457031-6.6572266-1.4213867-9.7709961c-0.4086914-0.7202148-0.909668-1.2841797-1.5-1.5439453
	c-1.6337891-0.7231445-2.4067383,0.487793-2.7675781,2.1586914c-0.3959961,1.8310547-0.3320312,4.0439453-0.2832031,5.9423828
	c0.0561523,2.1147461,0.1567383,5.9423828-1.9350586,6.6494141l-0.0991211,0.0302734
	c-1.2949219,0.3837891-2.4150391-0.3212891-3.2890625-1.3681641c-0.8066406-0.9658203-1.4057617-2.2382812-1.7109375-3.1425781
	L37,39.9609375c-0.8271484-2.7958984-1.5371094-6.9799805-2.2861328-11.394043
	c-0.2226562-1.3120117-0.4487305-2.6459961-0.7060547-4.0961914l-0.1137695-0.6386719
	C32.9038086,18.28125,31.0297852,7.7758789,33.8789062,3.1640625c1.3510742-2.1889648,3.4130859-2.9931641,5.8881836-3.1459961
	c0.9599609-0.0600586,2.1738281,0.0410156,3.519043,0.1508789c1.0849609,0.0888672,2.2587891,0.1860352,3.3989258,0.2099609
	C47.7587891,0.4018555,48.875,0.3330078,49.8930664,0.2700195C50.9130859,0.2070312,51.8359375,0.1489258,52.565918,0.1938477
	L52.565918,0.1938477z M57.2099609,6.5019531c-0.4780273-2.6831055-2.2539062-4.4492188-5.5239258-4.6518555
	c-3.1430664-0.1938477-4.1132812,0.4150391-8.4711914-0.2270508c-2.9047852-0.2392578-4.565918,0.5966797-5.7548828,1.875
	c-4.2631836,4.5839844-1.3251953,18.9008789-0.6660156,24.8520508c0.2939453,2.6538086,0.7080078,16.3334961,5.4482422,14.7963867
	c0.9555664-0.3164062,1.0175781-3.1777344,0.96875-5.0483398c-0.0551758-2.1000977-0.0610352-4.4863281,0.3852539-6.519043
	c0.3320312-1.5131836,0.9370117-2.7978516,2.0375977-3.2163086c0.2241211-0.0849609,0.4462891-0.1489258,0.6621094-0.1928711
	c1.1782227-0.2348633,2.1191406,0.1469727,2.8662109,0.8579102c2.5117188,2.3911133,2.6538086,7.6943359,2.6967773,10.9482422
	c0.0361328,2.637207,0.3081055,3.3852539,1.0419922,3.6977539c0.7070312,0.3007812,1.8510742,0.2617188,3.25-2.0097656
	c0.5390625-0.8740234,0.9169922-2.0273438,1.1782227-3.3339844c0.2661133-1.3349609,0.4077148-2.8183594,0.4741211-4.3261719
	c0.1118164-2.5927734-0.5073242-5.7851562-0.7211914-8.7919922c-0.1508789-2.1259766-0.3022461-4.2470703-0.3369141-6.2158203
	C56.6689453,14.7919922,57.9238281,10.5141602,57.2099609,6.5019531L57.2099609,6.5019531z"/>
<path fill="#37c8ee" d="M43.1347656,11.9458008c0.894043,0,1.6181641,1.1323242,1.6181641,2.5283203
	s-0.7250977,2.527832-1.6181641,2.527832c-0.8925781,0-1.6176758-1.1318359-1.6176758-2.527832
	C41.5170898,13.5078125,42.2387695,11.9458008,43.1347656,11.9458008L43.1347656,11.9458008z"/>
<path fill="#37c8ee" d="M44.5400391,17.2988281c0.4311523-0.644043,0.7998047-0.0336914,0.5488281,0.3413086
	C44.7788086,18.1030273,44.4072266,18.4677734,44,18.7177734c-0.4248047,0.2631836-0.8881836,0.4023438-1.3608398,0.4023438
	c-0.9672852,0-1.8300781-0.5620117-2.4414062-1.4682617c-0.5756836-0.8540039-0.9326172-2.0258789-0.9326172-3.3120117
	c0-0.8930664,0.1748047-1.7509766,0.4868164-2.4838867c0.3198242-0.7519531,0.7890625-1.3779297,1.3681641-1.7880859
	c0.2397461-0.1689453,0.5737305-0.0898438,0.6176758,0.1508789c0.0532227,0.2880859-0.3828125,0.6630859-0.5556641,0.9082031
	c-1.1220703,1.5942383-1.0341797,4.2700195-0.0878906,5.8017578C41.9428711,18.309082,43.5200195,18.8417969,44.5400391,17.2988281
	L44.5400391,17.2988281z"/>
<path fill="#37c8ee" d="M42.3149414,21.0869141c1.4790039,1.2329102,3.9331055,2.0292969,6.4189453,1.7167969
	c0.1733398-0.0205078,0.3212891,0.1240234,0.3510742,0.2954102c0.0302734,0.1708984-0.0771484,0.3139648-0.2299805,0.3959961
	c-2.9072266,1.5585938-5.5830078,1.1376953-7.0268555-1.9111328c-0.0722656-0.152832-0.0761719-0.3232422,0.0419922-0.4438477
	C41.9887695,21.019043,42.1860352,20.9790039,42.3149414,21.0869141L42.3149414,21.0869141z"/>
<path fill="#37c8ee" d="M51.8608398,17.6230469c0.4311523-0.644043,0.800293-0.0341797,0.5493164,0.3408203
	c-0.3110352,0.4628906-0.6821289,0.828125-1.0893555,1.0791016c-0.4257812,0.2631836-0.8876953,0.4018555-1.3608398,0.4018555
	c-0.9667969,0-1.8300781-0.5620117-2.440918-1.4677734c-0.5761719-0.8540039-0.9331055-2.0249023-0.9331055-3.3110352
	c0-0.8930664,0.175293-1.7509766,0.4868164-2.4838867c0.3203125-0.7519531,0.7890625-1.3793945,1.3681641-1.7880859
	c0.2402344-0.1689453,0.5742188-0.090332,0.6181641,0.1508789c0.0517578,0.2871094-0.3833008,0.6630859-0.5561523,0.9082031
	c-1.1220703,1.59375-1.0336914,4.2700195-0.0888672,5.8017578C49.2651367,18.6318359,50.8408203,19.1660156,51.8608398,17.6230469
	L51.8608398,17.6230469z"/>
<path fill="#37c8ee" d="M7.5532227,74.6015625l-2.0200195,0.3583984c-0.0673828-0.4013672-0.222168-0.703125-0.4633789-0.9072266
	c-0.2416992-0.2011719-0.5537109-0.3046875-0.9379883-0.3046875c-0.5107422,0-0.9199219,0.1777344-1.2236328,0.53125
	c-0.3051758,0.3535156-0.4570312,0.9453125-0.4570312,1.7744141c0,0.9228516,0.1547852,1.5742188,0.4638672,1.9550781
	c0.309082,0.3818359,0.7231445,0.5712891,1.2421875,0.5712891c0.3886719,0,0.7080078-0.1123047,0.9545898-0.3339844
	c0.25-0.2226562,0.4243164-0.6035156,0.5263672-1.1464844l2.0200195,0.34375
	c-0.2089844,0.9287109-0.6113281,1.6289062-1.2041016,2.1025391c-0.5932617,0.4755859-1.3891602,0.7109375-2.3891602,0.7109375
	c-1.1318359,0-2.0371094-0.3583984-2.7099609-1.0732422c-0.6757812-0.7197266-1.012207-1.7109375-1.012207-2.9804688
	c0-1.2841797,0.3383789-2.2822266,1.0151367-2.9970703c0.6762695-0.7158203,1.5913086-1.0722656,2.7460938-1.0722656
	c0.9418945,0,1.6928711,0.2041016,2.2509766,0.6113281C6.9091797,73.1503906,7.309082,73.7695312,7.5532227,74.6015625
	L7.5532227,74.6015625z M10.2250977,72.296875h7.0180664v1.6611328h-2.484375V80.0625h-2.0498047v-6.1044922h-2.4838867V72.296875
	L10.2250977,72.296875z M19.8461914,76.0849609c0-0.6845703,0.1669922-1.3447266,0.5039062-1.9814453
	c0.3359375-0.6425781,0.8120117-1.1269531,1.4287109-1.4648438c0.6162109-0.3369141,1.3012695-0.5058594,2.0620117-0.5058594
	c1.175293,0,2.1352539,0.3808594,2.8852539,1.1445312c0.7509766,0.7666016,1.125,1.7285156,1.125,2.8955078
	c0,1.1787109-0.3789062,2.1523438-1.1342773,2.9267578c-0.7578125,0.7724609-1.7109375,1.1582031-2.8608398,1.1582031
	c-0.7099609,0-1.3891602-0.1621094-2.0351562-0.4824219c-0.6435547-0.3222656-1.1347656-0.7929688-1.4707031-1.4179688
	C20.0131836,77.7363281,19.8461914,76.9785156,19.8461914,76.0849609L19.8461914,76.0849609z M21.9550781,76.1953125
	c0,0.7705078,0.1821289,1.3613281,0.5458984,1.7705078c0.3671875,0.4121094,0.8149414,0.6162109,1.3520508,0.6162109
	c0.5341797,0,0.9819336-0.2041016,1.34375-0.6162109c0.3623047-0.4091797,0.543457-1.0048828,0.543457-1.7841797
	c0-0.7617188-0.1821289-1.3476562-0.543457-1.7568359c-0.3608398-0.4111328-0.8095703-0.6142578-1.34375-0.6142578
	c-0.5371094,0-0.9848633,0.203125-1.3520508,0.6142578C22.137207,74.8339844,21.9550781,75.4238281,21.9550781,76.1953125
	L21.9550781,76.1953125z M31.3681641,72.296875h2.559082l1.9077148,5.4121094l1.9399414-5.4121094h2.5410156V80.0625h-1.75
	v-5.1113281L36.6860352,80.0625h-1.7631836l-1.8027344-5.1113281V80.0625h-1.75v-7.765625H31.3681641z M45.7460938,74.6914062
	l-1.8549805-0.3300781c0.2089844-0.7578125,0.5708008-1.3173828,1.0820312-1.6826172
	c0.5107422-0.3642578,1.2719727-0.5458984,2.2788086-0.5458984c0.9150391,0,1.5981445,0.1064453,2.046875,0.3242188
	c0.4462891,0.2167969,0.7631836,0.4912109,0.9453125,0.8251953c0.1816406,0.3339844,0.2739258,0.9443359,0.2739258,1.8378906
	l-0.0302734,2.3935547c0,0.6816406,0.0322266,1.1865234,0.097168,1.5097656
	c0.0649414,0.3242188,0.1870117,0.6699219,0.3671875,1.0390625h-2.0351562
	c-0.0532227-0.1347656-0.1201172-0.3339844-0.1977539-0.5986328c-0.0322266-0.1220703-0.0571289-0.2021484-0.0722656-0.2392578
	c-0.3491211,0.34375-0.7241211,0.6015625-1.1230469,0.7724609c-0.3979492,0.1728516-0.8227539,0.2597656-1.2739258,0.2597656
	c-0.7949219,0-1.4238281-0.2167969-1.8818359-0.6513672c-0.4589844-0.4306641-0.6889648-0.9785156-0.6889648-1.6425781
	c0-0.4375,0.1049805-0.828125,0.3149414-1.171875c0.2089844-0.3417969,0.5-0.6054688,0.8798828-0.7880859
	c0.3759766-0.1826172,0.9199219-0.3417969,1.6308594-0.4794922c0.9570312-0.1796875,1.6230469-0.3486328,1.9921875-0.5039062
	v-0.2050781c0-0.3994141-0.097168-0.6845703-0.2919922-0.8554688c-0.1972656-0.1689453-0.565918-0.2548828-1.1069336-0.2548828
	c-0.3671875,0-0.6513672,0.0732422-0.8549805,0.2197266C46.0380859,74.0683594,45.8740234,74.3251953,45.7460938,74.6914062
	L45.7460938,74.6914062z M48.4990234,76.3515625c-0.262207,0.0878906-0.6782227,0.1923828-1.2490234,0.3144531
	c-0.5678711,0.1220703-0.9418945,0.2421875-1.1171875,0.3554688c-0.2666016,0.1923828-0.4018555,0.4326172-0.4018555,0.7246094
	c0,0.2890625,0.1069336,0.5361328,0.3222656,0.7451172c0.2138672,0.2099609,0.4858398,0.3134766,0.8168945,0.3134766
	c0.3701172,0,0.7241211-0.1210938,1.0600586-0.3632812c0.2480469-0.1875,0.4116211-0.4121094,0.4887695-0.6816406
	c0.0522461-0.1748047,0.0800781-0.5087891,0.0800781-1V76.3515625L48.4990234,76.3515625z M53.6557617,72.296875h7.0170898
	v1.6611328h-2.4838867V80.0625h-2.0498047v-6.1044922h-2.4833984V72.296875L53.6557617,72.296875z M63.2753906,76.0849609
	c0-0.6845703,0.1679688-1.3447266,0.5039062-1.9814453c0.3369141-0.6425781,0.8125-1.1269531,1.4296875-1.4648438
	c0.6152344-0.3369141,1.3007812-0.5058594,2.0625-0.5058594c1.1738281,0,2.1347656,0.3808594,2.8847656,1.1445312
	c0.7509766,0.7666016,1.125,1.7285156,1.125,2.8955078c0,1.1787109-0.3789062,2.1523438-1.1347656,2.9267578
	c-0.7578125,0.7724609-1.7109375,1.1582031-2.8603516,1.1582031c-0.7099609,0-1.3896484-0.1621094-2.0341797-0.4824219
	c-0.6445312-0.3222656-1.1347656-0.7929688-1.4726562-1.4179688C63.4433594,77.7363281,63.2753906,76.9785156,63.2753906,76.0849609
	L63.2753906,76.0849609z M65.3867188,76.1953125c0,0.7705078,0.1816406,1.3613281,0.5449219,1.7705078
	c0.3662109,0.4121094,0.8154297,0.6162109,1.3525391,0.6162109c0.5322266,0,0.9814453-0.2041016,1.34375-0.6162109
	c0.3603516-0.4091797,0.5439453-1.0048828,0.5439453-1.7841797c0-0.7617188-0.1835938-1.3476562-0.5439453-1.7568359
	c-0.3603516-0.4111328-0.8115234-0.6142578-1.34375-0.6142578c-0.5361328,0-0.9853516,0.203125-1.3525391,0.6142578
	C65.5664062,74.8339844,65.3867188,75.4238281,65.3867188,76.1953125L65.3867188,76.1953125z M75.1181641,72.296875h6.8662109
	V80.0625h-2.0488281v-6.1035156h-2.7832031v3.4931641c0,0.8876953-0.1035156,1.5117188-0.3066406,1.8710938
	c-0.2070312,0.3583984-0.4345703,0.5927734-0.6845703,0.7041016c-0.2460938,0.1132812-0.6474609,0.1708984-1.1992188,0.1708984
	c-0.3251953,0-0.7607422-0.0458984-1.296875-0.1298828v-1.5097656c0.0449219,0,0.1591797,0.0058594,0.3447266,0.0166016
	c0.2148438,0.0146484,0.3808594,0.0205078,0.4980469,0.0205078c0.2802734,0,0.4492188-0.0917969,0.515625-0.2734375
	c0.0615234-0.1835938,0.0947266-0.6923828,0.0947266-1.5283203V72.296875L75.1181641,72.296875z M85.4375,76.0849609
	c0-0.6845703,0.1660156-1.3447266,0.5019531-1.9814453c0.3378906-0.6425781,0.8134766-1.1269531,1.4296875-1.4648438
	c0.6152344-0.3369141,1.3017578-0.5058594,2.0625-0.5058594c1.1738281,0,2.1347656,0.3808594,2.8847656,1.1445312
	c0.75,0.7666016,1.125,1.7285156,1.125,2.8955078c0,1.1787109-0.3789062,2.1523438-1.1347656,2.9267578
	c-0.7587891,0.7724609-1.7109375,1.1582031-2.8613281,1.1582031c-0.7089844,0-1.3886719-0.1621094-2.0332031-0.4824219
	c-0.6445312-0.3222656-1.1347656-0.7929688-1.4726562-1.4179688C85.6035156,77.7363281,85.4375,76.9785156,85.4375,76.0849609
	L85.4375,76.0849609z M87.5449219,76.1953125c0,0.7705078,0.1835938,1.3613281,0.546875,1.7705078
	c0.3662109,0.4121094,0.8154297,0.6162109,1.3515625,0.6162109c0.5332031,0,0.9824219-0.2041016,1.3447266-0.6162109
	c0.3603516-0.4091797,0.5439453-1.0048828,0.5439453-1.7841797c0-0.7617188-0.1835938-1.3476562-0.5439453-1.7568359
	c-0.3613281-0.4111328-0.8115234-0.6142578-1.3447266-0.6142578c-0.5351562,0-0.984375,0.203125-1.3515625,0.6142578
	C87.7285156,74.8339844,87.5449219,75.4238281,87.5449219,76.1953125L87.5449219,76.1953125z M97.0058594,72.296875h5.2519531
	v1.6611328h-3.2011719V80.0625h-2.0507812V72.296875L97.0058594,72.296875z M105.3691406,71.2509766v-1.8994141h2.0498047v1.8994141
	H105.3691406L105.3691406,71.2509766z M105.3691406,80.0625v-7.765625h2.0498047V80.0625H105.3691406L105.3691406,80.0625z
	 M118.2265625,72.296875V80.0625h-2.0507812v-3.2167969h-0.1894531c-0.4423828,0-0.7705078,0.0566406-0.9775391,0.171875
	c-0.2099609,0.1152344-0.4384766,0.3564453-0.6923828,0.7265625l-0.125,0.1523438L112.8369141,80.0625h-2.3916016
	l1.4716797-2.2460938c0.4179688-0.6445312,0.7978516-1.0126953,1.1376953-1.109375
	c-0.5742188-0.0351562-1.0410156-0.2519531-1.3984375-0.6552734c-0.3574219-0.4013672-0.5361328-0.9160156-0.5361328-1.5419922
	c0-0.5029297,0.1181641-0.9326172,0.3564453-1.2890625c0.2353516-0.3554688,0.5507812-0.5986328,0.9433594-0.7285156
	c0.3925781-0.1308594,0.9785156-0.1943359,1.7539062-0.1943359h4.0527344V72.296875z M116.1757812,73.6152344h-1.4736328
	c-0.5429688,0-0.9228516,0.0761719-1.1455078,0.2304688c-0.2197266,0.1552734-0.328125,0.4091797-0.328125,0.765625
	c0,0.359375,0.1230469,0.6152344,0.3730469,0.7734375c0.25,0.15625,0.6582031,0.2333984,1.2255859,0.2333984h1.3486328V73.6152344
	L116.1757812,73.6152344z"/>
<path fill="#37c8ee" d="M50.4370117,12.269043c0.894043,0,1.6181641,1.1318359,1.6181641,2.527832
	s-0.7250977,2.5283203-1.6181641,2.5283203s-1.6181641-1.1323242-1.6181641-2.5283203
	C48.8188477,13.8310547,49.5410156,12.269043,50.4370117,12.269043L50.4370117,12.269043z"/>
<path fill="#37c8ee" d="M66.0273438,0.1938477c-3.8232422,0.2382812-5.421875,2.7319336-5.96875,5.8120117
	c-0.5244141,2.9472656-0.0615234,6.4243164,0.2773438,8.875c0.3964844,2.8613281,0.1279297,6.6352539-0.1425781,10.4331055
	c-0.2148438,3.0268555-0.4311523,6.0698242-0.3164062,8.7280273c0.0683594,1.5620117,0.2148438,3.0927734,0.4882812,4.4648438
	c0.2792969,1.4013672,0.6953125,2.6542969,1.2998047,3.6357422c0.59375,0.9628906,1.3134766,1.7822266,2.0537109,2.3515625
	c0.7558594,0.5810547,1.546875,0.90625,2.2714844,0.8710938c1.6396484-0.0214844,2.2607422-1.875,2.5078125-4.0761719
	c0.3808594-3.40625-0.3476562-6.6572266,1.4208984-9.7709961c0.4091797-0.7202148,0.9091797-1.2841797,1.4990234-1.5439453
	c1.6347656-0.7231445,2.4072266,0.487793,2.7675781,2.1586914c0.3964844,1.8310547,0.3320312,4.0439453,0.2832031,5.9423828
	c-0.0556641,2.1147461-0.15625,5.9423828,1.9355469,6.6494141l0.1005859,0.0302734
	c1.2949219,0.3837891,2.4140625-0.3212891,3.2890625-1.3681641c0.8076172-0.9658203,1.4052734-2.2382812,1.7109375-3.1425781
	l0.0908203-0.2832031c0.8251953-2.7958984,1.5361328-6.9799805,2.2851562-11.394043
	c0.2226562-1.3120117,0.4492188-2.6459961,0.7060547-4.0961914l0.1132812-0.6386719
	C85.6894531,18.28125,87.5625,7.7758789,84.7148438,3.1640625c-1.3515625-2.1889648-3.4130859-2.9931641-5.8876953-3.1459961
	c-0.9609375-0.0600586-2.1748047,0.0410156-3.5205078,0.1508789c-1.0859375,0.0888672-2.2587891,0.1860352-3.3984375,0.2099609
	c-1.0742188,0.0229492-2.1904297-0.0458984-3.2089844-0.1088867C67.6816406,0.2070312,66.7568359,0.1489258,66.0273438,0.1938477
	L66.0273438,0.1938477z M61.3837891,6.5019531c0.4775391-2.6831055,2.2548828-4.4492188,5.5234375-4.6518555
	c3.1425781-0.1938477,4.1123047,0.4150391,8.4707031-0.2270508c2.9052734-0.2392578,4.5654297,0.5966797,5.7558594,1.875
	c4.2626953,4.5839844,1.3242188,18.9008789,0.6650391,24.8520508c-0.2939453,2.6538086-0.7070312,16.3334961-5.4472656,14.7963867
	c-0.9550781-0.3164062-1.0175781-3.1777344-0.96875-5.0483398c0.0566406-2.1000977,0.0605469-4.4863281-0.3857422-6.519043
	c-0.3310547-1.5131836-0.9365234-2.7978516-2.0371094-3.2163086c-0.2255859-0.0849609-0.4462891-0.1489258-0.6621094-0.1928711
	c-1.1787109-0.2348633-2.1181641,0.1469727-2.8662109,0.8579102c-2.5117188,2.3911133-2.6542969,7.6943359-2.6972656,10.9482422
	c-0.0341797,2.637207-0.3076172,3.3852539-1.0410156,3.6977539c-0.7070312,0.3007812-1.8505859,0.2617188-3.25-2.0097656
	c-0.5390625-0.8740234-0.9160156-2.0273438-1.1777344-3.3339844c-0.2666016-1.3349609-0.4082031-2.8183594-0.4736328-4.3261719
	c-0.1123047-2.5927734,0.5078125-5.7851562,0.7216797-8.7919922c0.1503906-2.1259766,0.3027344-4.2470703,0.3378906-6.2158203
	C61.9248047,14.7919922,60.6699219,10.5141602,61.3837891,6.5019531L61.3837891,6.5019531z"/>
<path fill="#37c8ee" d="M75.4580078,11.9458008c-0.8935547,0-1.6171875,1.1323242-1.6171875,2.5283203
	s0.7255859,2.527832,1.6171875,2.527832c0.8935547,0,1.6181641-1.1318359,1.6181641-2.527832
	C77.0761719,13.5078125,76.3535156,11.9458008,75.4580078,11.9458008L75.4580078,11.9458008z"/>
<path fill="#37c8ee" d="M74.0546875,17.2988281c-0.4326172-0.644043-0.8007812-0.0336914-0.5498047,0.3413086
	c0.3115234,0.4628906,0.6826172,0.8276367,1.0888672,1.0776367c0.4257812,0.2631836,0.8886719,0.4023438,1.3603516,0.4023438
	c0.9667969,0,1.8300781-0.5620117,2.4404297-1.4682617c0.5761719-0.8540039,0.9345703-2.0258789,0.9345703-3.3120117
	c0-0.8930664-0.1767578-1.7509766-0.4873047-2.4838867c-0.3203125-0.7519531-0.7890625-1.3779297-1.3671875-1.7880859
	c-0.2402344-0.1689453-0.5742188-0.0898438-0.6191406,0.1508789c-0.0507812,0.2880859,0.3847656,0.6630859,0.5566406,0.9082031
	c1.1220703,1.5942383,1.0332031,4.2700195,0.0888672,5.8017578C76.6484375,18.309082,75.0742188,18.8417969,74.0546875,17.2988281
	L74.0546875,17.2988281z"/>
<path fill="#37c8ee" d="M76.2773438,21.0869141c-1.4785156,1.2329102-3.9335938,2.0292969-6.4199219,1.7167969
	c-0.171875-0.0205078-0.3203125,0.1240234-0.3505859,0.2954102c-0.0302734,0.171875,0.0761719,0.3139648,0.2294922,0.3959961
	c2.90625,1.5585938,5.5820312,1.1376953,7.0273438-1.9111328c0.0712891-0.152832,0.0751953-0.3232422-0.0429688-0.4438477
	C76.6035156,21.019043,76.4072266,20.9790039,76.2773438,21.0869141L76.2773438,21.0869141z"/>
<path fill="#37c8ee" d="M66.7324219,17.6230469c-0.4326172-0.644043-0.8007812-0.0341797-0.5488281,0.3408203
	c0.3095703,0.4628906,0.6816406,0.828125,1.0878906,1.0791016c0.4257812,0.2631836,0.8886719,0.4018555,1.3603516,0.4018555
	c0.9677734,0,1.8291016-0.5620117,2.4404297-1.4677734c0.5761719-0.8540039,0.9335938-2.0249023,0.9335938-3.3110352
	c0-0.8930664-0.1748047-1.7509766-0.4863281-2.4838867c-0.3193359-0.7519531-0.7890625-1.3793945-1.3671875-1.7880859
	c-0.2402344-0.1689453-0.5742188-0.090332-0.6181641,0.1508789c-0.0537109,0.2871094,0.3828125,0.6630859,0.5556641,0.9082031
	c1.1220703,1.59375,1.0332031,4.2700195,0.0898438,5.8017578C69.328125,18.6318359,67.7519531,19.1660156,66.7324219,17.6230469
	L66.7324219,17.6230469z"/>
<path fill="#37c8ee" d="M68.15625,12.269043c-0.8925781,0-1.6171875,1.1318359-1.6171875,2.527832
	s0.7246094,2.5283203,1.6171875,2.5283203c0.8935547,0,1.6171875-1.1323242,1.6171875-2.5283203
	C69.7734375,13.8310547,69.0527344,12.269043,68.15625,12.269043L68.15625,12.269043z"/>
</svg>
