<svg id="_лой_1" data-name="—лой 1" xmlns="http://www.w3.org/2000/svg" viewBox="0 0 1464 572"><defs><style>.cls-1{fill:#9cd8c5;}.cls-1,.cls-2{fill-rule:evenodd;}.cls-2{fill:#fff;}</style></defs><title>_____ [преобразованный]</title><rect width="1464" height="572"/><path class="cls-1" d="M-63.6,480.17q0,2.06-3,3.81a16.41,16.41,0,0,1-5.29,2,20.91,20.91,0,0,1-4.28.46c-4.28,0-7.69-1.22-10.27-3.66a11.63,11.63,0,0,1-3.59-8.75,11.51,11.51,0,0,1,3.59-8.7c2.58-2.44,6-3.66,10.27-3.66a22.29,22.29,0,0,1,4.66.46,17.31,17.31,0,0,1,5.23,2c1.83,1.12,2.71,2.39,2.71,3.86l.76.51L-58,461.1l-.63-.51a1.71,1.71,0,0,1-1.39.51c-.5,0-2.27-.86-5.23-2.59a23,23,0,0,0-11.84-2.8c-6.49,0-11.65,1.78-15.43,5.34a17,17,0,0,0-5.35,13,17.22,17.22,0,0,0,5.35,13.07c3.78,3.61,8.88,5.29,15.37,5.29a31.61,31.61,0,0,0,3.28-.15,22.55,22.55,0,0,0,8.5-2.49c3.59-1.88,5.48-2.85,5.54-2.85a1.72,1.72,0,0,1,1.2.66l.63-.46-4.85-7.42-.76.46Zm46.54-25.58c-.31,1.17-.95,1.73-1.89,1.73H-48.56c-.94,0-1.51-.56-1.83-1.73h-.88v9.25h.88c.31-1.12.88-1.68,1.83-1.68h11v27.15c0,.86-.57,1.42-1.64,1.78v.81h11v-.81c-1.13-.36-1.7-1-1.7-1.88V462.17h11q1.42,0,1.89,1.68h.82v-9.25Zm40.62,19.68a11.87,11.87,0,0,1-12.41,12.2,11.78,11.78,0,0,1-9.32-4,12.46,12.46,0,0,1-3-8.44,12.29,12.29,0,0,1,3.09-8.39,11.65,11.65,0,0,1,9.26-4q6,0,9.45,4a13,13,0,0,1,3,8.59Zm7.94.05A18.46,18.46,0,0,0,30,466.64c-3-6.71-10-10.93-18.84-10.93-6.36,0-11.4,1.83-15.12,5.44a17.2,17.2,0,0,0-5.17,12.92,18.06,18.06,0,0,0,3,10.17,17.77,17.77,0,0,0,9.39,7,25.67,25.67,0,0,0,7.94,1.22c6.3,0,11.34-1.68,15.06-5.29a17.07,17.07,0,0,0,5.29-12.81ZM86.15,491.1c-1.13-.36-1.7-1-1.7-1.88V459.07a1.87,1.87,0,0,1,1.7-1.88v-.86H72.8v.86c.82.05,1.26.41,1.26,1.12a3.74,3.74,0,0,1-.63,1.78l-9.7,17.59-9.64-17.9a2.6,2.6,0,0,1-.38-1.22,1.34,1.34,0,0,1,1.2-1.37v-.86H41.36v.86A1.86,1.86,0,0,1,43,459.07v30.15a2,2,0,0,1-1.64,1.88v.81H51.69v-.81c-1.07-.36-1.64-1-1.64-1.88V467.3l13,24.1,13.67-24.1v21.92c0,.92-.57,1.53-1.64,1.88v.81h11v-.81Zm28.77-25.68,5.61,12.51H109.07l5.73-12.51Zm22,25.68a3.6,3.6,0,0,1-2.08-1.27,19.65,19.65,0,0,1-1.13-2l-13.42-27.46a4.39,4.39,0,0,1-.5-1.73c0-.76.5-1.22,1.51-1.47v-.86H108.88v.86c.95.31,1.45.86,1.45,1.68a5.2,5.2,0,0,1-.57,2.08l-13,27.36a12.56,12.56,0,0,1-.95,1.73,3,3,0,0,1-1.89,1.07v.81h11.72v-.81c-1.2-.36-1.76-.86-1.76-1.58a4.69,4.69,0,0,1,.5-1.68l2.39-5h16.06l2.33,5a4.81,4.81,0,0,1,.5,1.63c0,.86-.57,1.37-1.64,1.63v.81H137v-.81Zm38.92-36.51c-.32,1.17-.95,1.73-1.89,1.73H144.39c-.94,0-1.51-.56-1.83-1.73h-.88v9.25h.88c.31-1.12.88-1.68,1.83-1.68h11v27.15c0,.86-.57,1.42-1.64,1.78v.81h11v-.81c-1.13-.36-1.7-1-1.7-1.88V462.17h11q1.42,0,1.89,1.68h.82v-9.25Zm40.62,19.68a11.87,11.87,0,0,1-12.41,12.2,11.78,11.78,0,0,1-9.32-4,12.47,12.47,0,0,1-3-8.44,12.29,12.29,0,0,1,3.09-8.39,11.65,11.65,0,0,1,9.26-4q6,0,9.45,4a13,13,0,0,1,3,8.59Zm7.94.05a18.45,18.45,0,0,0-1.51-7.68c-3-6.71-10-10.93-18.83-10.93-6.36,0-11.4,1.83-15.12,5.44a17.2,17.2,0,0,0-5.17,12.92,18.06,18.06,0,0,0,3,10.17,17.77,17.77,0,0,0,9.39,7,25.67,25.67,0,0,0,7.94,1.22c6.3,0,11.34-1.68,15.06-5.29a17.07,17.07,0,0,0,5.29-12.81Zm47.86,16.78a2.49,2.49,0,0,1-2.08-1.32c-.19-.25-.5-1-1.07-2.19l-12.22-26.65a6.61,6.61,0,0,1-.76-2.24c0-.86.57-1.37,1.64-1.53v-.86H245.6v.86c1.07.15,1.64.66,1.64,1.53a6.6,6.6,0,0,1-.76,2.24l-12.22,26.65c-.31.76-.69,1.47-1,2.19a2.84,2.84,0,0,1-2.14,1.32v.81H243.2v-.81c-1.13-.25-1.7-.76-1.7-1.47a5.63,5.63,0,0,1,.63-2l9.39-20.95,9.32,20.95a5.45,5.45,0,0,1,.57,2c0,.71-.57,1.22-1.7,1.47v.81h12.6v-.81Zm39.36-16.83a11.87,11.87,0,0,1-12.41,12.2,11.78,11.78,0,0,1-9.32-4,12.46,12.46,0,0,1-3-8.44,12.29,12.29,0,0,1,3.09-8.39,11.65,11.65,0,0,1,9.26-4q6,0,9.45,4a13,13,0,0,1,3,8.59Zm7.94.05a18.46,18.46,0,0,0-1.51-7.68c-3-6.71-10-10.93-18.84-10.93-6.36,0-11.4,1.83-15.12,5.44A17.2,17.2,0,0,0,279,474.07a18.06,18.06,0,0,0,3,10.17,17.77,17.77,0,0,0,9.39,7,25.67,25.67,0,0,0,7.94,1.22c6.3,0,11.34-1.68,15.06-5.29a17.07,17.07,0,0,0,5.29-12.81Zm41.62-19.73c-.31,1.17-.94,1.73-1.89,1.73H329.48v.86a1.9,1.9,0,0,1,1.64,1.88v30.15a2,2,0,0,1-1.64,1.88v.81h11v-.81c-1.07-.36-1.64-1-1.64-1.88V462.17h20.54q1.32,0,1.89,1.68H362v-9.25Zm46,17.29c-5.17,0-7.75-1.68-7.75-5a3.91,3.91,0,0,1,2.2-3.92,13.41,13.41,0,0,1,5.54-.81h11.91v9.71Zm21.23,19.22c-1.07-.36-1.64-1-1.64-1.88V459.07a1.9,1.9,0,0,1,1.64-1.88v-.86h-22c-5,0-8.57.76-10.84,2.24-2.52,1.68-3.78,4.42-3.78,8.34,0,5.8,3.21,9.31,9.57,10.47l-6.8,9.56-1.83,2.64a4,4,0,0,1-3,1.53v.81h12.85v-.81c-.88-.15-1.32-.46-1.32-1a7.34,7.34,0,0,1,1.26-2.29l7.12-10.48h9.39v11.85c0,.92-.57,1.53-1.64,1.88v.81h11v-.81Zm-47,0c-1.13-.36-1.7-1-1.7-1.88V459.07a1.87,1.87,0,0,1,1.7-1.88v-.86h-11v.86a1.86,1.86,0,0,1,1.64,1.88v30.15a2,2,0,0,1-1.64,1.88v.81h11Z" transform="translate(535.21 -60.33)"/><path class="cls-2" d="M389.11,347.44l-20.41-70.73-18.15,70.73Zm45.55,72.89H408.17l-13.06-45.75H343.06l-12.81,45.75H308.41L356.94,246H385.6Z" transform="translate(535.21 -60.33)"/><polygon class="cls-2" points="791.58 360 764.36 360 764.36 212.04 724.94 212.04 724.94 185.66 830.96 185.66 830.96 212.04 791.58 212.04 791.58 360"/><polygon class="cls-2" points="689.22 360 663.51 360 663.51 284.27 601.39 284.27 601.39 360 575.12 360 575.12 185.66 601.39 185.66 601.39 255.63 663.51 255.63 663.51 185.66 689.22 185.66 689.22 360"/><polygon class="cls-2" points="534.56 360 438.31 360 438.31 185.66 533.6 185.66 533.6 213.3 461.59 213.3 461.59 253.76 513.31 253.76 513.31 282.44 461.59 282.44 461.59 331.51 534.56 331.51 534.56 360"/><path class="cls-2" d="M-257,390.22h77.07l-39.56-126.61L-257,390.22Zm-29.35,0L-236,215.61h33.24l53.18,174.61h21.48v72.73h-26.59l-.63-43H-281.48l-.59,43h-26V390.22Z" transform="translate(535.21 -60.33)"/><path class="cls-2" d="M454.75,266.63l12.56,55L505,330.54l-50.22-63.92ZM566.41,274v56.76h-7V273.33l3.28-10.26L566.41,274Zm0,71.87h-7v30.45l-27-30.45h-8.37v.36l17.61,19.93-17.82-10.4-.15,7.42,26.49,15.42-34.82,73.27-20.6-14.48L470,332.88l2,.46,32.4,19.1V345l-10.73-6.58,10.73,3V330.75h14.68l-26.2-76.59h52.42l7.84-22.77-14.93-16.31,17.17,9.79.74-2.16h13.33l1,2.25,17-9.88-15,16.34,7.73,22.74h52.56l-27,76.59h14.84V341.3l11.42-2.92-11.42,7.26v7.08l33.09-19.38,2-.46L630.73,437.4l-20.6,14.48-34.82-73.27,25.45-14.83-.16-7.4-16.77,9.79,16.57-18.76,0-1.54h-7.3L566.41,376V345.87ZM424.16,241.17h1l51.47-43h49.54l.16-.28,36.43,20.8,36.43-20.8.16.28h49.54l51.47,43h1.31v13h-.32l-32.24,71.31L640.35,446.65l-36.87,28.27-40.72-84.54L522,474.92l-36.87-28.27L456.4,325.48l-32.24-71.31v-13Zm15.56,0h8l16.41-21-24.42,21Zm22.12,0h22.53l3.19-21.27-25.72,21.27Zm28.85,0h57.22l-53.58-23.28-.16.07-3.48,23.21Zm86.91,0h57.22L631.34,218l-.16-.07L577.6,241.17Zm63.54,0h22.53L637.95,219.9l3.19,21.27Zm36.64,0h8l-24.42-21,16.41,21Zm13.07,13H680.76l-3.9,5.83-7.51,36.67,21.5-42.5Zm-18.56,0H639.53L613.5,329l58.79-74.82Zm-186.31,0L512,329l-58.79-74.82Zm-41.22,0,3.9,5.83,7.51,36.67-21.5-42.5Zm226,12.46-50.22,63.92,37.66-8.88,12.56-55Zm-51.81-61,11.29,5L630,209l3.72-.56,4.08-2.74Zm-12.35,1.38L578.45,234l44.94-19.53-16.79-7.41Zm37.85,1.67L639,212.37l24.42,20.29-19-23.94Zm-137.88-3.06H487.72l4.08,2.74,3.72.56-.25,1.68,11.29-5Zm12.35,1.38-16.79,7.41L547.06,234l-28.14-26.93Zm-37.85,1.67-19,23.94,24.42-20.29Z" transform="translate(535.21 -60.33)"/><path class="cls-1" d="M538.19,332.46h48l-23.5-74.77-24.5,74.77Zm-18.28,0,37-107.18h11.62l36.51,107.18h13.66v21.12l-16.28,9.35-.39-18.75h-79.7L522,362.36l-15.92-9.07V332.46Z" transform="translate(535.21 -60.33)"/></svg>