<svg id="_лой_1" data-name="—лой 1" xmlns="http://www.w3.org/2000/svg" viewBox="0 0 1464 572"><defs><style>.cls-1,.cls-2{fill:#38c8ee;fill-rule:evenodd}.cls-2{fill:#313131}</style></defs><path fill="#fff" d="M0 0h1464v572H0z"/><path class="cls-1" d="M-63.6 480.17q0 2.06-3 3.81a16.41 16.41 0 0 1-5.29 2 20.91 20.91 0 0 1-4.28.46c-4.28 0-7.69-1.22-10.27-3.66a11.63 11.63 0 0 1-3.59-8.75 11.51 11.51 0 0 1 3.59-8.7c2.58-2.44 6-3.66 10.27-3.66a22.29 22.29 0 0 1 4.66.46 17.31 17.31 0 0 1 5.23 2c1.83 1.12 2.71 2.39 2.71 3.86l.76.51 4.81-7.4-.63-.51a1.71 1.71 0 0 1-1.39.51c-.5 0-2.27-.86-5.23-2.59a23 23 0 0 0-11.84-2.8c-6.49 0-11.65 1.78-15.43 5.34a17 17 0 0 0-5.35 13 17.22 17.22 0 0 0 5.35 13.07c3.78 3.61 8.88 5.29 15.37 5.29a31.61 31.61 0 0 0 3.28-.15 22.55 22.55 0 0 0 8.5-2.49c3.59-1.88 5.48-2.85 5.54-2.85a1.72 1.72 0 0 1 1.2.66l.63-.46-4.85-7.42-.76.46zm46.54-25.58c-.31 1.17-.95 1.73-1.89 1.73h-29.61c-.94 0-1.51-.56-1.83-1.73h-.88v9.25h.88c.31-1.12.88-1.68 1.83-1.68h11v27.15c0 .86-.57 1.42-1.64 1.78v.81h11v-.81c-1.13-.36-1.7-1-1.7-1.88v-27.04h11q1.42 0 1.89 1.68h.82v-9.25zm40.62 19.68a11.87 11.87 0 0 1-12.41 12.2 11.78 11.78 0 0 1-9.32-4 12.46 12.46 0 0 1-3-8.44 12.29 12.29 0 0 1 3.09-8.39 11.65 11.65 0 0 1 9.26-4q6 0 9.45 4a13 13 0 0 1 3 8.59zm7.94.05a18.46 18.46 0 0 0-1.5-7.68c-3-6.71-10-10.93-18.84-10.93-6.36 0-11.4 1.83-15.12 5.44a17.2 17.2 0 0 0-5.17 12.92 18.06 18.06 0 0 0 3 10.17 17.77 17.77 0 0 0 9.39 7 25.67 25.67 0 0 0 7.94 1.22c6.3 0 11.34-1.68 15.06-5.29a17.07 17.07 0 0 0 5.29-12.81zm54.65 16.78c-1.13-.36-1.7-1-1.7-1.88v-30.15a1.87 1.87 0 0 1 1.7-1.88v-.86H72.8v.86c.82.05 1.26.41 1.26 1.12a3.74 3.74 0 0 1-.63 1.78l-9.7 17.59-9.64-17.9a2.6 2.6 0 0 1-.38-1.22 1.34 1.34 0 0 1 1.2-1.37v-.86H41.36v.86a1.86 1.86 0 0 1 1.64 1.88v30.15a2 2 0 0 1-1.64 1.88v.81h10.33v-.81c-1.07-.36-1.64-1-1.64-1.88V467.3l13 24.1 13.67-24.1v21.92c0 .92-.57 1.53-1.64 1.88v.81h11v-.81zm28.77-25.68l5.61 12.51h-11.46l5.73-12.51zm22 25.68a3.6 3.6 0 0 1-2.08-1.27 19.65 19.65 0 0 1-1.13-2l-13.42-27.46a4.39 4.39 0 0 1-.5-1.73c0-.76.5-1.22 1.51-1.47v-.86h-12.42v.86c.95.31 1.45.86 1.45 1.68a5.2 5.2 0 0 1-.57 2.08l-13 27.36a12.56 12.56 0 0 1-.95 1.73 3 3 0 0 1-1.89 1.07v.81h11.72v-.81c-1.2-.36-1.76-.86-1.76-1.58a4.69 4.69 0 0 1 .5-1.68l2.39-5h16.06l2.33 5a4.81 4.81 0 0 1 .5 1.63c0 .86-.57 1.37-1.64 1.63v.81H137v-.81zm38.92-36.51c-.32 1.17-.95 1.73-1.89 1.73h-29.56c-.94 0-1.51-.56-1.83-1.73h-.88v9.25h.88c.31-1.12.88-1.68 1.83-1.68h11v27.15c0 .86-.57 1.42-1.64 1.78v.81h11v-.81c-1.13-.36-1.7-1-1.7-1.88v-27.04h11q1.42 0 1.89 1.68h.82v-9.25zm40.62 19.68a11.87 11.87 0 0 1-12.41 12.2 11.78 11.78 0 0 1-9.32-4 12.47 12.47 0 0 1-3-8.44 12.29 12.29 0 0 1 3.09-8.39 11.65 11.65 0 0 1 9.26-4q6 0 9.45 4a13 13 0 0 1 3 8.59zm7.94.05a18.45 18.45 0 0 0-1.51-7.68c-3-6.71-10-10.93-18.83-10.93-6.36 0-11.4 1.83-15.12 5.44a17.2 17.2 0 0 0-5.17 12.92 18.06 18.06 0 0 0 3 10.17 17.77 17.77 0 0 0 9.39 7 25.67 25.67 0 0 0 7.94 1.22c6.3 0 11.34-1.68 15.06-5.29a17.07 17.07 0 0 0 5.29-12.81zm47.86 16.78a2.49 2.49 0 0 1-2.08-1.32c-.19-.25-.5-1-1.07-2.19l-12.22-26.65a6.61 6.61 0 0 1-.76-2.24c0-.86.57-1.37 1.64-1.53v-.86H245.6v.86c1.07.15 1.64.66 1.64 1.53a6.6 6.6 0 0 1-.76 2.24l-12.22 26.65c-.31.76-.69 1.47-1 2.19a2.84 2.84 0 0 1-2.14 1.32v.81h12.08v-.81c-1.13-.25-1.7-.76-1.7-1.47a5.63 5.63 0 0 1 .63-2l9.39-20.95 9.32 20.95a5.45 5.45 0 0 1 .57 2c0 .71-.57 1.22-1.7 1.47v.81h12.6v-.81zm39.36-16.83a11.87 11.87 0 0 1-12.41 12.2 11.78 11.78 0 0 1-9.32-4 12.46 12.46 0 0 1-3-8.44 12.29 12.29 0 0 1 3.09-8.39 11.65 11.65 0 0 1 9.26-4q6 0 9.45 4a13 13 0 0 1 3 8.59zm7.94.05a18.46 18.46 0 0 0-1.51-7.68c-3-6.71-10-10.93-18.84-10.93-6.36 0-11.4 1.83-15.12 5.44a17.2 17.2 0 0 0-5.09 12.92 18.06 18.06 0 0 0 3 10.17 17.77 17.77 0 0 0 9.39 7 25.67 25.67 0 0 0 7.94 1.22c6.3 0 11.34-1.68 15.06-5.29a17.07 17.07 0 0 0 5.29-12.81zm41.62-19.73c-.31 1.17-.94 1.73-1.89 1.73h-29.81v.86a1.9 1.9 0 0 1 1.64 1.88v30.15a2 2 0 0 1-1.64 1.88v.81h11v-.81c-1.07-.36-1.64-1-1.64-1.88v-27.04h20.54q1.32 0 1.89 1.68h.73v-9.25zm46 17.29c-5.17 0-7.75-1.68-7.75-5a3.91 3.91 0 0 1 2.2-3.92 13.41 13.41 0 0 1 5.54-.81h11.91v9.71zm21.23 19.22c-1.07-.36-1.64-1-1.64-1.88v-30.15a1.9 1.9 0 0 1 1.64-1.88v-.86h-22c-5 0-8.57.76-10.84 2.24-2.52 1.68-3.78 4.42-3.78 8.34 0 5.8 3.21 9.31 9.57 10.47l-6.8 9.56-1.83 2.64a4 4 0 0 1-3 1.53v.81h12.85v-.81c-.88-.15-1.32-.46-1.32-1a7.34 7.34 0 0 1 1.26-2.29l7.12-10.48h9.39v11.85c0 .92-.57 1.53-1.64 1.88v.81h11v-.81zm-47 0c-1.13-.36-1.7-1-1.7-1.88v-30.15a1.87 1.87 0 0 1 1.7-1.88v-.86h-11v.86a1.86 1.86 0 0 1 1.64 1.88v30.15a2 2 0 0 1-1.64 1.88v.81h11z" transform="translate(535.21 -60.33)"/><path class="cls-2" d="M389.11 347.44l-20.41-70.73-18.15 70.73zm45.55 72.89h-26.49l-13.06-45.75h-52.05l-12.81 45.75h-21.84L356.94 246h28.66z" transform="translate(535.21 -60.33)"/><path class="cls-2" d="M791.58 360h-27.22V212.04h-39.42v-26.38h106.02v26.38h-39.38V360zM689.22 360h-25.71v-75.73h-62.12V360h-26.27V185.66h26.27v69.97h62.12v-69.97h25.71V360zM534.56 360h-96.25V185.66h95.29v27.64h-72.01v40.46h51.72v28.68h-51.72v49.07h72.97V360z"/><path class="cls-2" d="M-257 390.22h77.07l-39.56-126.61L-257 390.22zm-29.35 0L-236 215.61h33.24l53.18 174.61h21.48v72.73h-26.59l-.63-43h-126.16l-.59 43h-26v-72.73zM454.75 266.63l12.56 55 37.69 8.91-50.22-63.92zM566.41 274v56.76h-7v-57.43l3.28-10.26 3.72 10.93zm0 71.87h-7v30.45l-27-30.45h-8.37v.36l17.61 19.93-17.82-10.4-.15 7.42 26.49 15.42-34.82 73.27-20.6-14.48L470 332.88l2 .46 32.4 19.1V345l-10.73-6.58 10.73 3v-10.67h14.68l-26.2-76.59h52.42l7.84-22.77-14.93-16.31 17.17 9.79.74-2.16h13.33l1 2.25 17-9.88-15 16.34 7.73 22.74h52.56l-27 76.59h14.84v10.55l11.42-2.92-11.42 7.26v7.08l33.09-19.38 2-.46-24.94 104.52-20.6 14.48-34.82-73.27 25.45-14.83-.16-7.4-16.77 9.79 16.57-18.76v-1.54h-7.3L566.41 376v-30.13zm-142.25-104.7h1l51.47-43h49.54l.16-.28 36.43 20.8 36.43-20.8.16.28h49.54l51.47 43h1.31v13h-.32l-32.24 71.31-28.76 121.17-36.87 28.27-40.72-84.54L522 474.92l-36.87-28.27-28.73-121.17-32.24-71.31v-13zm15.56 0h8l16.41-21-24.42 21zm22.12 0h22.53l3.19-21.27-25.72 21.27zm28.85 0h57.22l-53.58-23.28-.16.07-3.48 23.21zm86.91 0h57.22L631.34 218l-.16-.07-53.58 23.24zm63.54 0h22.53l-25.72-21.27 3.19 21.27zm36.64 0h8l-24.42-21 16.41 21zm13.07 13h-10.09l-3.9 5.83-7.51 36.67 21.5-42.5zm-18.56 0h-32.76L613.5 329l58.79-74.82zm-186.31 0L512 329l-58.79-74.82zm-41.22 0l3.9 5.83 7.51 36.67-21.5-42.5zm226 12.46l-50.22 63.92 37.66-8.88 12.56-55zm-51.81-61l11.29 5L630 209l3.72-.56 4.08-2.74zm-12.35 1.38L578.45 234l44.94-19.53-16.79-7.41zm37.85 1.67l-5.45 3.69 24.42 20.29-19-23.94zm-137.88-3.06h-18.85l4.08 2.74 3.72.56-.25 1.68 11.29-5zm12.35 1.38l-16.79 7.41L547.06 234l-28.14-26.93zm-37.85 1.67l-19 23.94 24.42-20.29z" transform="translate(535.21 -60.33)"/><path class="cls-1" d="M538.19 332.46h48l-23.5-74.77-24.5 74.77zm-18.28 0l37-107.18h11.62l36.51 107.18h13.66v21.12l-16.28 9.35-.39-18.75h-79.7l-.33 18.18-15.92-9.07v-20.83z" transform="translate(535.21 -60.33)"/></svg>